<svg xmlns="http://www.w3.org/2000/svg" viewBox="0 0 100 100" role="img" aria-label="Metrobüs">
  <defs>
    <clipPath id="mbmark"><rect width="100" height="100" rx="17"/></clipPath>
  </defs>
  <g clip-path="url(#mbmark)">
    <rect width="100" height="100" fill="#263679"/>
    <g transform="translate(8,18) scale(0.47)">
      <path fill="#1a97d5" d="M 69.976562 -22.386719 C -55.214844 -18.238281 -1.203125 38.691406 -1.164062 38.691406 L -3.542969 45.34375 C -3.542969 45.34375 22.167969 32.859375 33.214844 32.859375 C 44.265625 32.859375 63.570312 45.058594 63.570312 45.058594 C 63.570312 45.058594 73.878906 30.351562 89.445312 30.394531 C 131.503906 30.515625 173.234375 102.601562 173.234375 102.601562 C 173.234375 102.601562 198.085938 79.230469 192.910156 60.378906 C 187.691406 41.566406 271.402344 -29.039062 69.976562 -22.386719 Z"/>
      <path fill="#ffffff" d="M 61.0625 51.425781 L 80.328125 42.183594 L 70.921875 42.183594 C 70.921875 42.183594 74.371094 34.171875 91.992188 34.171875 C 133.105469 34.171875 181.738281 122.6875 181.738281 122.6875 L 191.390625 77.421875 C 191.390625 77.421875 142.308594 28.875 91.785156 28.875 C 71.332031 28.875 58.105469 42.46875 58.105469 42.46875 L 50.632812 42.46875 Z"/>
      <path fill="#ffffff" d="M 102.34375 112.789062 L 127.316406 91.019531 L 113.554688 91.019531 C 113.554688 91.019531 68.582031 32.652344 29.4375 32.652344 C 5.082031 32.652344 -12.867188 52.449219 -12.867188 52.449219 L -2.269531 51.835938 C -2.269531 51.835938 13.132812 36.554688 29.847656 36.554688 C 50.753906 36.554688 80.941406 90.976562 80.941406 90.976562 L 64.351562 90.976562 Z"/>
    </g>
  </g>
</svg>
